<mxfile host="Electron" modified="2023-11-05T13:16:38.145Z" agent="Mozilla/5.0 (Windows NT 10.0; Win64; x64) AppleWebKit/537.36 (KHTML, like Gecko) draw.io/22.0.3 Chrome/114.0.5735.289 Electron/25.8.4 Safari/537.36" etag="hBL7DMZux_-XysIF9NDG" version="22.0.3" type="device">
  <diagram name="Sayfa -1" id="aYlRN7wxTSdYsEo4fvUj">
    <mxGraphModel dx="1036" dy="606" grid="1" gridSize="10" guides="1" tooltips="1" connect="1" arrows="1" fold="1" page="1" pageScale="1" pageWidth="827" pageHeight="1169" math="0" shadow="0">
      <root>
        <mxCell id="0" />
        <mxCell id="1" parent="0" />
        <mxCell id="vvBXnoKJIzqgnplyayx9-2" style="edgeStyle=orthogonalEdgeStyle;rounded=0;orthogonalLoop=1;jettySize=auto;html=1;" edge="1" parent="1" source="vvBXnoKJIzqgnplyayx9-1" target="vvBXnoKJIzqgnplyayx9-3">
          <mxGeometry relative="1" as="geometry">
            <mxPoint x="390" y="120" as="targetPoint" />
          </mxGeometry>
        </mxCell>
        <mxCell id="vvBXnoKJIzqgnplyayx9-1" value="start" style="ellipse;whiteSpace=wrap;html=1;" vertex="1" parent="1">
          <mxGeometry x="330" width="120" height="80" as="geometry" />
        </mxCell>
        <mxCell id="vvBXnoKJIzqgnplyayx9-4" style="edgeStyle=orthogonalEdgeStyle;rounded=0;orthogonalLoop=1;jettySize=auto;html=1;" edge="1" parent="1" source="vvBXnoKJIzqgnplyayx9-3" target="vvBXnoKJIzqgnplyayx9-5">
          <mxGeometry relative="1" as="geometry">
            <mxPoint x="390" y="240" as="targetPoint" />
          </mxGeometry>
        </mxCell>
        <mxCell id="vvBXnoKJIzqgnplyayx9-3" value="sayi==s&lt;br&gt;fak==f&lt;br&gt;fak==1" style="rounded=0;whiteSpace=wrap;html=1;" vertex="1" parent="1">
          <mxGeometry x="330" y="110" width="120" height="60" as="geometry" />
        </mxCell>
        <mxCell id="vvBXnoKJIzqgnplyayx9-6" style="edgeStyle=orthogonalEdgeStyle;rounded=0;orthogonalLoop=1;jettySize=auto;html=1;" edge="1" parent="1" source="vvBXnoKJIzqgnplyayx9-5" target="vvBXnoKJIzqgnplyayx9-7">
          <mxGeometry relative="1" as="geometry">
            <mxPoint x="390" y="330" as="targetPoint" />
          </mxGeometry>
        </mxCell>
        <mxCell id="vvBXnoKJIzqgnplyayx9-5" value="s&#39;yi giriniz" style="shape=parallelogram;perimeter=parallelogramPerimeter;whiteSpace=wrap;html=1;fixedSize=1;" vertex="1" parent="1">
          <mxGeometry x="330" y="210" width="120" height="60" as="geometry" />
        </mxCell>
        <mxCell id="vvBXnoKJIzqgnplyayx9-8" style="edgeStyle=orthogonalEdgeStyle;rounded=0;orthogonalLoop=1;jettySize=auto;html=1;" edge="1" parent="1" source="vvBXnoKJIzqgnplyayx9-7" target="vvBXnoKJIzqgnplyayx9-9">
          <mxGeometry relative="1" as="geometry">
            <mxPoint x="390" y="400" as="targetPoint" />
          </mxGeometry>
        </mxCell>
        <mxCell id="vvBXnoKJIzqgnplyayx9-7" value="f=f*s" style="rounded=0;whiteSpace=wrap;html=1;" vertex="1" parent="1">
          <mxGeometry x="330" y="300" width="120" height="60" as="geometry" />
        </mxCell>
        <mxCell id="vvBXnoKJIzqgnplyayx9-10" style="edgeStyle=orthogonalEdgeStyle;rounded=0;orthogonalLoop=1;jettySize=auto;html=1;" edge="1" parent="1" source="vvBXnoKJIzqgnplyayx9-9" target="vvBXnoKJIzqgnplyayx9-11">
          <mxGeometry relative="1" as="geometry">
            <mxPoint x="390" y="520" as="targetPoint" />
          </mxGeometry>
        </mxCell>
        <mxCell id="vvBXnoKJIzqgnplyayx9-9" value="s--" style="rounded=0;whiteSpace=wrap;html=1;" vertex="1" parent="1">
          <mxGeometry x="330" y="390" width="120" height="60" as="geometry" />
        </mxCell>
        <mxCell id="vvBXnoKJIzqgnplyayx9-12" value="false" style="edgeStyle=orthogonalEdgeStyle;rounded=0;orthogonalLoop=1;jettySize=auto;html=1;" edge="1" parent="1" source="vvBXnoKJIzqgnplyayx9-11">
          <mxGeometry x="0.0013" relative="1" as="geometry">
            <mxPoint x="450" y="330" as="targetPoint" />
            <Array as="points">
              <mxPoint x="651" y="520" />
              <mxPoint x="651" y="340" />
              <mxPoint x="460" y="340" />
              <mxPoint x="460" y="330" />
              <mxPoint x="450" y="330" />
            </Array>
            <mxPoint as="offset" />
          </mxGeometry>
        </mxCell>
        <mxCell id="vvBXnoKJIzqgnplyayx9-13" value="true" style="edgeStyle=orthogonalEdgeStyle;rounded=0;orthogonalLoop=1;jettySize=auto;html=1;" edge="1" parent="1" source="vvBXnoKJIzqgnplyayx9-11" target="vvBXnoKJIzqgnplyayx9-14">
          <mxGeometry y="10" relative="1" as="geometry">
            <mxPoint x="390" y="600" as="targetPoint" />
            <mxPoint as="offset" />
          </mxGeometry>
        </mxCell>
        <mxCell id="vvBXnoKJIzqgnplyayx9-11" value="s==1" style="rhombus;whiteSpace=wrap;html=1;" vertex="1" parent="1">
          <mxGeometry x="350" y="480" width="80" height="80" as="geometry" />
        </mxCell>
        <mxCell id="vvBXnoKJIzqgnplyayx9-15" style="edgeStyle=orthogonalEdgeStyle;rounded=0;orthogonalLoop=1;jettySize=auto;html=1;" edge="1" parent="1" source="vvBXnoKJIzqgnplyayx9-14" target="vvBXnoKJIzqgnplyayx9-16">
          <mxGeometry relative="1" as="geometry">
            <mxPoint x="390" y="760" as="targetPoint" />
          </mxGeometry>
        </mxCell>
        <mxCell id="vvBXnoKJIzqgnplyayx9-14" value="f" style="shape=document;whiteSpace=wrap;html=1;boundedLbl=1;" vertex="1" parent="1">
          <mxGeometry x="330" y="600" width="120" height="80" as="geometry" />
        </mxCell>
        <mxCell id="vvBXnoKJIzqgnplyayx9-16" value="finish" style="ellipse;whiteSpace=wrap;html=1;" vertex="1" parent="1">
          <mxGeometry x="330" y="720" width="120" height="80" as="geometry" />
        </mxCell>
      </root>
    </mxGraphModel>
  </diagram>
</mxfile>
